<svg xmlns="http://www.w3.org/2000/svg" version="1.1" xmlns:xlink="http://www.w3.org/1999/xlink" width="1500" height="632" viewBox="0 0 1500 632"><svg xml:space="preserve" width="1500" height="632" data-version="2" data-id="lg_UvSlzm1KdNMoRJPBp2" viewBox="0 0 632 632" x="0" y="0"><rect width="100%" height="100%" fill="transparent"></rect><path fill="#ff990a" d="M249.818 107.74a17.937 17.937 0 0 0 18.087-18.088V24.106a18.087 18.087 0 0 0-36.174 0v65.546a17.937 17.937 0 0 0 18.087 18.087m63.827 0a17.937 17.937 0 0 0 18.087-18.087V24.106a18.087 18.087 0 1 0-36.174 0v65.546a17.937 17.937 0 0 0 18.087 18.087m60.987 0a17.937 17.937 0 0 0 18.087-18.087V24.106a18.087 18.087 0 1 0-36.174 0v65.546a17.937 17.937 0 0 0 18.087 18.087M249.818 516.711a17.937 17.937 0 0 0-18.087 18.161v65.547a18.087 18.087 0 1 0 36.174 0v-65.547a17.937 17.937 0 0 0-18.087-18.161m63.827 0a17.937 17.937 0 0 0-18.087 18.161v65.547a18.087 18.087 0 0 0 36.174 0v-65.547a17.937 17.937 0 0 0-18.087-18.161m60.987 0a17.937 17.937 0 0 0-18.087 18.161v65.547a18.087 18.087 0 0 0 36.174 0v-65.547a17.937 17.937 0 0 0-18.087-18.161m22.72-391.782H227.098c-56.428 0-102.168 45.74-102.168 102.168v170.256c0 56.428 45.74 102.168 102.168 102.168h170.256c56.428 0 102.168-45.74 102.168-102.168V227.097c0-56.428-45.74-102.168-102.168-102.168M265.065 422.913a41.854 41.854 0 0 1-11.136-82.063v-68.012h-99.18v-23.02h122.274v91.331a41.704 41.704 0 0 1-11.958 81.764m199.329-25.56H342.12v-91.331a41.704 41.704 0 0 1 11.958-81.765 41.854 41.854 0 0 1 11.061 82.064v68.012h99.254zm70.478-129.448h65.472a18.087 18.087 0 0 0 0-36.174h-65.546a18.087 18.087 0 0 0 0 36.174m65.62 27.653h-65.546a18.087 18.087 0 0 0 0 36.174h65.547a18.087 18.087 0 0 0 0-36.174m0 60.987h-65.547a18.087 18.087 0 0 0 0 36.174h65.547a18.087 18.087 0 0 0 0-36.174M89.652 231.731H24.106a18.087 18.087 0 1 0 0 36.174h65.546a18.087 18.087 0 1 0 0-36.174m0 63.827H24.106a18.087 18.087 0 0 0 0 36.174h65.546a18.087 18.087 0 1 0 0-36.174m0 60.987H24.106a18.087 18.087 0 0 0 0 36.174h65.546a18.087 18.087 0 1 0 0-36.174"></path><circle r="2.81" fill="#ff990a" transform="translate(265.514 379.566)scale(7.4739)"></circle><circle r="2.81" fill="#ff990a" transform="translate(353.706 265.663)scale(7.4739)"></circle></svg></svg>